# xmcd CD database file
#
# Track frame offsets:
#	170
#	17440
#	37360
#	51052
#	69640
#	88850
#	108250
#	124730
#	142287
#	158177
#
# Disc length: 2341 seconds
#
# Revision: 1
# Processed by: cddbd v1.4PL0 Copyright (c) Steve Scherf et al.
# Submitted via: CDex 1.40Release
#
DISCID=8e09230a
DTITLE=Dalton Reed - Louisiana Soul Man
DYEAR=1992
DGENRE=Blues
TTITLE0=Read me my Rights
TTITLE1=Blues of the Month Club
TTITLE2=Keep on loving Me
TTITLE3=Last to Understand
TTITLE4=Heavy Love
TTITLE5=Full Moon
TTITLE6=Keep the Spirit
TTITLE7=I'm only Guilty of loving You
TTITLE8=Party on the Farm
TTITLE9=Chained and Bound
EXTD=YEAR: 1992 ID3G: 0
EXTT0=
EXTT1=
EXTT2=
EXTT3=
EXTT4=
EXTT5=
EXTT6=
EXTT7=
EXTT8=
EXTT9=
PLAYORDER=
